<svg width="105" height="105" viewBox="0 0 105 105" fill="none" xmlns="http://www.w3.org/2000/svg">
<rect x="0.5" y="0.5" width="104" height="104" stroke="black"/>
<path d="M96.7969 78.75C96.7969 78.75 93.3788 63.4374 83.6719 52.5C82.2086 50.8512 89.4141 1.64062 85.3125 1.64062C78.9551 1.64062 71.3672 19.2773 59.0625 29.5312L59.1691 30.9344C57.3175 29.9191 55.0955 29.3262 52.7051 29.3262C50.1268 29.3262 47.7449 30.0159 45.8122 31.1817L45.9375 29.5312C33.6328 19.2773 26.0449 1.64062 19.6875 1.64062C15.5859 1.64062 22.7916 50.8512 21.3281 52.5C11.6212 63.4374 8.20312 78.75 8.20312 78.75C8.20312 78.75 14.3555 77.7759 16.4062 78.75L14.7656 83.6719C14.7656 83.6719 32.8125 88.9526 40.8957 95.8935L41.0722 95.8037C42.041 96.7969 43.8488 97.5825 45.9375 98.4375C47.4996 99.0769 50.8424 96.5918 52.7051 96.5918C54.5399 96.5918 56.9026 98.6491 58.4473 98.0273C60.3317 97.2688 62.3437 97.207 63.678 95.7079L64.1043 95.8933C72.1875 88.9526 90.2344 83.6719 90.2344 83.6719L88.5938 78.75C90.6445 77.7759 96.7969 78.75 96.7969 78.75Z" fill="#FFA54B"/>
<path d="M45.5273 97.6172C45.5273 100.789 48.6492 103.36 52.5 103.36C56.351 103.36 59.4727 100.789 59.4727 97.6172H45.5273Z" fill="#FFCD9B"/>
<path d="M57.4219 88.5938C57.4219 91.3121 52.5 93.5156 52.5 93.5156C52.5 93.5156 47.5781 91.3121 47.5781 88.5938C47.5781 85.8754 49.7817 83.6719 52.5 83.6719C55.2183 83.6719 57.4219 85.8754 57.4219 88.5938Z" fill="#464655"/>
<path d="M19.6875 3.28125C22.1484 7.65618 36.0938 34.4531 36.0938 34.4531L27.8906 32.8125C27.8906 32.8125 31.1719 38.5547 31.1719 41.0156C31.1719 44.1943 27.8906 45.9375 27.8906 45.9375" fill="#FF8C46"/>
<path d="M85.3125 3.28125C82.8516 7.65618 68.9062 34.4531 68.9062 34.4531L77.1094 32.8125C77.1094 32.8125 73.8281 38.5547 73.8281 41.0156C73.8281 44.1943 77.1094 45.9375 77.1094 45.9375" fill="#FF8C46"/>
<path d="M52.5 96.7977C60.3955 101.104 66.6504 93.5165 71.0596 91.0233C75.7009 88.3987 86.3379 85.7235 89.6191 83.6727L89.209 78.991L96.1816 78.3407C96.1816 78.3407 85.867 67.1758 72.8027 75.0594C60.9082 82.2372 52.5 96.7977 52.5 96.7977Z" fill="#FFDEB7"/>
<path d="M52.2949 97.0008C44.3994 101.307 38.1445 93.7196 33.7354 91.2265C29.094 88.6019 18.457 85.9266 15.1758 83.8758L15.5859 79.1941L8.61328 78.5438C8.61328 78.5438 18.9279 67.3789 31.9922 75.2626C43.8867 82.4403 52.2949 97.0008 52.2949 97.0008Z" fill="#FFDEB7"/>
<path d="M39.375 62.3438C37.5658 62.3438 36.0938 63.8158 36.0938 65.625C36.0938 67.4342 37.5658 68.9062 39.375 68.9062C41.1842 68.9062 42.6562 67.4342 42.6562 65.625C42.6562 63.8158 41.1842 62.3438 39.375 62.3438Z" fill="black"/>
<path d="M65.625 62.3438C63.8158 62.3438 62.3438 63.8158 62.3438 65.625C62.3438 67.4342 63.8158 68.9062 65.625 68.9062C67.4342 68.9062 68.9062 67.4342 68.9062 65.625C68.9062 63.8158 67.4342 62.3438 65.625 62.3438Z" fill="black"/>
<path d="M98.1158 79.7227C98.1215 79.7147 98.1266 79.7065 98.1324 79.6985C98.1631 79.6552 98.1916 79.6107 98.2177 79.5654C98.2253 79.5523 98.2322 79.5387 98.2394 79.5254C98.2622 79.4827 98.2829 79.4395 98.302 79.3954C98.3079 79.3814 98.3141 79.3675 98.3196 79.3533C98.3393 79.3035 98.3565 79.2531 98.3711 79.202C98.3733 79.194 98.3762 79.1864 98.3785 79.1784C98.3945 79.1191 98.407 79.0591 98.4162 78.9986C98.4182 78.9846 98.4191 78.9707 98.4209 78.9565C98.4269 78.9106 98.431 78.8642 98.433 78.8177C98.4338 78.7976 98.4338 78.7775 98.434 78.7574C98.4342 78.7141 98.4326 78.6708 98.4295 78.6276C98.4283 78.6093 98.4273 78.5913 98.4252 78.573C98.4187 78.5125 98.4096 78.4522 98.3965 78.3928C98.3955 78.388 98.3945 78.3833 98.3932 78.3786C98.2158 77.5882 94.7748 62.7197 85.1333 51.6793C84.9381 49.9031 85.6778 42.0381 86.3338 35.0643C86.981 28.1833 87.7146 20.3839 88.0472 14.0682C88.6036 3.50355 87.7692 1.65088 86.9431 0.743408C86.5069 0.263936 85.9271 0 85.3109 0C81.068 0 77.3214 5.05907 72.136 12.0613C68.1799 17.4035 63.7024 23.4433 58.2867 28.0336C56.6844 27.8086 54.657 27.6855 52.4984 27.6855C50.3397 27.6855 48.3123 27.8086 46.7101 28.0336C41.2941 23.4433 36.8167 17.4035 32.8605 12.0613C27.6753 5.05907 23.9287 0 19.6859 0C19.0696 0 18.4899 0.263936 18.0537 0.743408C17.2276 1.65067 16.3929 3.50355 16.9495 14.0682C17.2822 20.3839 18.0157 28.1833 18.663 35.0643C19.319 42.0379 20.0587 49.9031 19.8635 51.6793C10.2219 62.7197 6.78113 77.5882 6.60353 78.3786C6.60251 78.3833 6.60128 78.388 6.60025 78.3928C6.58713 78.4524 6.5781 78.5127 6.57134 78.5732C6.56949 78.5913 6.56847 78.6093 6.56703 78.6276C6.56375 78.6708 6.56231 78.7141 6.56252 78.7574C6.56252 78.7777 6.56272 78.7978 6.56354 78.8181C6.56539 78.864 6.5697 78.91 6.57544 78.9557C6.57728 78.97 6.57811 78.9846 6.58036 78.999C6.58959 79.0591 6.60189 79.1187 6.61789 79.1778C6.62056 79.187 6.62384 79.1963 6.6265 79.2055C6.64086 79.2551 6.65727 79.3037 6.67634 79.3519C6.68249 79.3673 6.68926 79.3825 6.69582 79.3978C6.71407 79.4405 6.73417 79.4819 6.75611 79.5231C6.76411 79.5377 6.7717 79.5525 6.7799 79.5668C6.80513 79.6105 6.8324 79.6528 6.86173 79.6944C6.8687 79.7042 6.87465 79.7143 6.88183 79.7239C6.91915 79.7744 6.95935 79.8234 7.00303 79.8699C7.00405 79.871 7.00467 79.872 7.00569 79.8732C7.01164 79.8796 7.01861 79.8849 7.02477 79.8911C7.05491 79.922 7.08526 79.953 7.11849 79.9821C7.12525 79.9881 7.13243 79.993 7.1392 79.9987C7.15294 80.0106 7.1675 80.0213 7.18165 80.0328C7.21692 80.0611 7.25322 80.0875 7.29014 80.1123C7.30408 80.1216 7.31803 80.1312 7.33238 80.14C7.38201 80.1712 7.43246 80.1999 7.48414 80.2251C7.48537 80.2257 7.48681 80.2266 7.48804 80.2272C7.54423 80.2542 7.60145 80.2774 7.65969 80.2979C7.67076 80.3018 7.68184 80.3049 7.69312 80.3084C7.74008 80.3238 7.78786 80.3369 7.83585 80.3478C7.8502 80.3512 7.86456 80.3545 7.87912 80.3574C7.93798 80.3691 7.99704 80.3787 8.05631 80.3841C8.05795 80.3841 8.05959 80.3841 8.06103 80.3843C8.10758 80.3882 8.15413 80.3902 8.20089 80.3902C8.21073 80.3902 8.22078 80.3888 8.23063 80.3888C8.25503 80.3884 8.27943 80.3865 8.30384 80.3849C8.34321 80.3824 8.38218 80.3787 8.42135 80.3736C8.43365 80.372 8.44596 80.372 8.45826 80.3701C10.3821 80.0654 12.7198 79.8966 14.2646 79.9819L13.2079 83.1526C13.0668 83.5753 13.1041 84.0371 13.3106 84.4321C13.5173 84.8269 13.8756 85.1205 14.3034 85.2458C14.4798 85.2975 31.9873 90.4712 39.7503 97.0748C40.3516 97.6773 41.02 98.2023 41.7533 98.6375C42.5986 99.1393 43.5061 99.4971 44.4542 99.7221C45.2031 102.728 48.525 105 52.4984 105C56.472 105 59.7936 102.728 60.5426 99.7225C61.4909 99.4978 62.3983 99.1399 63.2434 98.6379C63.9768 98.2025 64.6452 97.6777 65.2467 97.0752C73.0029 90.4774 90.5172 85.2979 90.6936 85.2463C91.1212 85.1212 91.4796 84.8273 91.6862 84.4323C91.8927 84.0375 91.93 83.5755 91.7889 83.153L90.7305 79.9778C92.279 79.8904 94.6151 80.0668 96.5387 80.3705C96.5506 80.3724 96.5625 80.3722 96.5746 80.3738C96.6148 80.3793 96.655 80.3828 96.6956 80.3853C96.7184 80.3867 96.7413 80.3886 96.7641 80.389C96.7745 80.3892 96.785 80.3906 96.7955 80.3906C96.9044 80.3906 97.0133 80.3787 97.1205 80.357C97.1324 80.3545 97.1443 80.3517 97.1562 80.349C97.2077 80.3373 97.2585 80.3234 97.309 80.3067C97.3174 80.3039 97.3258 80.3016 97.334 80.2988C97.4488 80.2588 97.5602 80.2052 97.666 80.1386C97.6787 80.1306 97.691 80.1224 97.7033 80.1142C97.7421 80.0881 97.7802 80.0602 97.8174 80.0305C97.8303 80.0203 97.843 80.0104 97.8557 80C97.8629 79.9938 97.8705 79.9887 97.8775 79.9825C97.9129 79.9516 97.9455 79.9183 97.9777 79.8851C97.9818 79.8808 97.9864 79.8773 97.9905 79.873C97.9911 79.8726 97.9915 79.8716 97.9921 79.871C98.0374 79.8236 98.078 79.774 98.1158 79.7227ZM52.4984 101.719C50.6293 101.719 48.9649 100.981 48.1347 99.9278C49.5676 99.7656 51.0388 99.3357 52.4984 98.6387C53.9581 99.3357 55.4292 99.7656 56.862 99.9278C56.0319 100.981 54.3673 101.719 52.4984 101.719ZM52.4988 91.6878C50.9777 90.8734 49.2171 89.5189 49.2171 88.5938C49.2171 86.7846 50.6892 85.3125 52.4984 85.3125C54.3076 85.3125 55.7796 86.7846 55.7796 88.5938C55.7796 89.4467 54.1614 90.8014 52.4988 91.6878ZM87.8881 77.2681C87.1394 77.6237 86.7735 78.4822 87.0356 79.2688L88.1453 82.5979C84.5025 83.7553 75.5414 86.8075 68.4859 90.8871C68.7609 89.66 68.9046 88.3425 68.9046 86.9531C68.9046 83.5322 69.6247 79.0041 73.0554 76.86C73.8238 76.3797 74.0572 75.3676 73.5771 74.5994C73.0968 73.831 72.085 73.5972 71.3163 74.0777C67.5919 76.4051 65.6234 80.8576 65.6234 86.9531C65.6234 90.2569 64.6638 92.9929 62.9455 94.733C62.9256 94.7529 62.9061 94.7728 62.8874 94.7935C62.4871 95.1895 62.047 95.5326 61.5686 95.8166C59.4866 97.0524 56.8754 97.03 54.139 95.7809V94.5324C55.8951 93.588 59.0609 91.4847 59.0609 88.5938C59.0609 84.9751 56.117 82.0312 52.4984 82.0312C48.8798 82.0312 45.9359 84.9751 45.9359 88.5938C45.9359 91.4847 49.1019 93.588 50.8578 94.5324V95.7809C48.1212 97.0303 45.5099 97.0526 43.4282 95.8166C42.9497 95.5326 42.5096 95.1895 42.1093 94.7935C42.0907 94.7728 42.0712 94.7529 42.0513 94.733C40.3329 92.9929 39.3734 90.2569 39.3734 86.9531C39.3734 80.8576 37.4048 76.4051 33.6804 74.0775C32.9118 73.597 31.8997 73.8308 31.4196 74.5992C30.9395 75.3674 31.1729 76.3797 31.9414 76.8598C35.3721 79.0041 36.0921 83.5322 36.0921 86.9531C36.0921 88.3425 36.2359 89.66 36.5109 90.8871C29.4554 86.8075 20.4943 83.7553 16.8515 82.5979L17.9612 79.2688C18.2233 78.4824 17.8576 77.6239 17.1087 77.2681C16.1501 76.8128 14.6641 76.673 13.1566 76.6791C18.3791 73.4071 24.3215 73.5047 25.9549 73.8017C26.8468 73.9643 27.7003 73.3724 27.8625 72.481C28.0246 71.5895 27.4333 70.7353 26.5418 70.5733C24.1638 70.1408 17.332 70.1455 11.3201 73.9573C13.1207 68.6522 16.6474 60.2435 22.5535 53.589C23.4343 52.5966 23.4681 51.1122 21.9296 34.757C21.3042 28.108 20.5954 20.572 20.2544 14.4186C20.0833 11.3326 20.0341 9.06691 20.0517 7.40106C23.4655 13.7983 30.0372 26.3862 33.0539 32.1727L28.2108 31.2039C27.5802 31.078 26.934 31.3316 26.558 31.8533C26.1821 32.3751 26.1454 33.0682 26.4645 33.6265C27.7372 35.8538 29.5296 39.6186 29.5296 41.0156C29.5296 43.1474 27.1353 44.4798 27.1193 44.4888C26.3191 44.914 26.0152 45.9071 26.4401 46.7072C26.735 47.2621 27.3029 47.5785 27.8904 47.5785C28.1501 47.5785 28.4136 47.5168 28.6589 47.3864C28.8283 47.2963 32.8109 45.1332 32.8109 41.0156C32.8109 39.4361 31.8546 37.0422 30.9281 35.0934L35.7704 36.062C36.3893 36.1856 37.0246 35.9434 37.404 35.4383C37.7832 34.9336 37.839 34.2558 37.5476 33.6956C37.0359 32.7126 26.1764 11.8482 22.1882 4.44035C24.4968 6.28072 27.3023 10.0689 30.2236 14.0138C34.3572 19.5956 39.042 25.9223 44.8855 30.7915C45.0867 30.959 45.3163 31.0687 45.5546 31.1253C45.8824 31.3306 46.2825 31.4231 46.6936 31.3546C48.1743 31.1083 50.2899 30.9668 52.4984 30.9668C54.7069 30.9668 56.8225 31.1083 58.3031 31.3548C58.3944 31.37 58.485 31.3772 58.5746 31.3772C58.889 31.3772 59.188 31.2853 59.4431 31.1253C59.6812 31.0685 59.9105 30.959 60.1113 30.7917C65.9548 25.9225 70.6396 19.5958 74.7731 14.014C77.6945 10.0691 80.5 6.28093 82.8085 4.44056C78.8206 11.8486 67.9609 32.7128 67.4492 33.6958C67.1578 34.2558 67.2136 34.9336 67.5927 35.4385C67.9721 35.9434 68.6077 36.186 69.2264 36.0622L74.0687 35.0936C73.1422 37.0422 72.1859 39.4361 72.1859 41.0156C72.1859 45.1332 76.1685 47.2963 76.3381 47.3864C76.5834 47.5166 76.8467 47.5785 77.1065 47.5785C77.6939 47.5785 78.2619 47.2623 78.5568 46.7072C78.982 45.9071 78.6778 44.9138 77.8776 44.4888C77.8534 44.4759 75.4671 43.1484 75.4671 41.0156C75.4671 39.6217 77.2595 35.8554 78.5324 33.6265C78.8511 33.0678 78.8144 32.3747 78.4385 31.8531C78.0626 31.3316 77.4162 31.0777 76.786 31.2037L71.9429 32.1725C74.9594 26.386 81.5313 13.7983 84.945 7.40086C84.9627 9.06691 84.9136 11.3324 84.7424 14.4184C84.4014 20.5718 83.6924 28.1078 83.0671 34.7568C81.5286 51.112 81.5625 52.5964 82.4433 53.589C88.3385 60.2314 91.8687 68.6452 93.6729 73.9551C87.6617 70.1455 80.8318 70.1408 78.4549 70.5733C77.5634 70.7355 76.9722 71.5895 77.1342 72.481C77.2964 73.3724 78.1502 73.9645 79.0419 73.8017C80.6749 73.5049 86.6174 73.4073 91.84 76.6793C90.3326 76.673 88.8466 76.8128 87.8881 77.2681Z" fill="black"/>
</svg>
