<svg width="48" height="24" viewBox="0 0 48 24" fill="none" xmlns="http://www.w3.org/2000/svg">
<circle cx="11.9998" cy="11.9998" r="11.9998" fill="#AECF98"/>
<path d="M24.0002 23.9997C25.576 23.9997 27.1364 23.6893 28.5923 23.0862C30.0482 22.4832 31.371 21.5993 32.4853 20.485C33.5996 19.3707 34.4835 18.0478 35.0866 16.592C35.6896 15.1361 36 13.5757 36 11.9998C36 10.424 35.6896 8.86358 35.0866 7.40769C34.4835 5.95181 33.5996 4.62895 32.4853 3.51467C31.371 2.40038 30.0482 1.51648 28.5923 0.913432C27.1364 0.310384 25.576 -5.93411e-07 24.0002 -5.24529e-07L24.0002 11.9998L24.0002 23.9997Z" fill="#AECF98"/>
<path d="M36.0002 23.9997C37.576 23.9997 39.1364 23.6893 40.5923 23.0862C42.0482 22.4832 43.371 21.5993 44.4853 20.485C45.5996 19.3707 46.4835 18.0478 47.0866 16.592C47.6896 15.1361 48 13.5757 48 11.9998C48 10.424 47.6896 8.86358 47.0866 7.40769C46.4835 5.95181 45.5996 4.62895 44.4853 3.51467C43.371 2.40038 42.0482 1.51648 40.5923 0.913432C39.1364 0.310384 37.576 -5.93411e-07 36.0002 -5.24529e-07L36.0002 11.9998L36.0002 23.9997Z" fill="#AECF98"/>
</svg>
