<svg width="35" height="35" viewBox="0 0 35 35" fill="none" xmlns="http://www.w3.org/2000/svg">
<path d="M15.787 32.0807C15.1307 32.0807 14.5659 31.862 14.0924 31.4245C13.6189 30.987 13.3331 30.4523 13.2349 29.8203L12.9068 27.4141C12.5908 27.2925 12.2933 27.1467 12.0143 26.9766C11.7352 26.8064 11.4616 26.6241 11.1932 26.4297L8.93281 27.3776C8.32517 27.645 7.71754 27.6693 7.1099 27.4505C6.50226 27.2318 6.0283 26.8429 5.68802 26.2839L3.97448 23.2943C3.6342 22.7352 3.53698 22.1398 3.68281 21.5078C3.82865 20.8759 4.15677 20.3533 4.66719 19.9401L6.59948 18.4818C6.57517 18.3116 6.56302 18.1473 6.56302 17.9889V17.0045C6.56302 16.847 6.57517 16.6832 6.59948 16.513L4.66719 15.0547C4.15677 14.6415 3.82865 14.1189 3.68281 13.487C3.53698 12.855 3.6342 12.2595 3.97448 11.7005L5.68802 8.71094C6.0283 8.15191 6.50226 7.76302 7.1099 7.54427C7.71754 7.32552 8.32517 7.34983 8.93281 7.61719L11.1932 8.5651C11.4606 8.37066 11.7401 8.18837 12.0318 8.01823C12.3234 7.84809 12.6151 7.70226 12.9068 7.58073L13.2349 5.17448C13.3321 4.54253 13.618 4.00781 14.0924 3.57031C14.5668 3.13281 15.1317 2.91406 15.787 2.91406H19.2141C19.8703 2.91406 20.4357 3.13281 20.9101 3.57031C21.3845 4.00781 21.6699 4.54253 21.7661 5.17448L22.0943 7.58073C22.4102 7.70226 22.7082 7.84809 22.9882 8.01823C23.2682 8.18837 23.5414 8.37066 23.8078 8.5651L26.0682 7.61719C26.6759 7.34983 27.2835 7.32552 27.8911 7.54427C28.4988 7.76302 28.9727 8.15191 29.313 8.71094L31.0266 11.7005C31.3668 12.2595 31.4641 12.855 31.3182 13.487C31.1724 14.1189 30.8443 14.6415 30.3339 15.0547L28.4016 16.513C28.4259 16.6832 28.438 16.8475 28.438 17.0059V17.9889C28.438 18.1473 28.4137 18.3116 28.3651 18.4818L30.2974 19.9401C30.8078 20.3533 31.1359 20.8759 31.2818 21.5078C31.4276 22.1398 31.3304 22.7352 30.9901 23.2943L29.2401 26.2839C28.8998 26.8429 28.4259 27.2318 27.8182 27.4505C27.2106 27.6693 26.603 27.645 25.9953 27.3776L23.8078 26.4297C23.5405 26.6241 23.2609 26.8064 22.9693 26.9766C22.6776 27.1467 22.3859 27.2925 22.0943 27.4141L21.7661 29.8203C21.6689 30.4523 21.3836 30.987 20.9101 31.4245C20.4366 31.862 19.8713 32.0807 19.2141 32.0807H15.787ZM17.5734 22.6016C18.9832 22.6016 20.1863 22.1033 21.1828 21.1068C22.1793 20.1102 22.6776 18.9071 22.6776 17.4974C22.6776 16.0877 22.1793 14.8845 21.1828 13.888C20.1863 12.8915 18.9832 12.3932 17.5734 12.3932C16.1394 12.3932 14.93 12.8915 13.9451 13.888C12.9602 14.8845 12.4683 16.0877 12.4693 17.4974C12.4702 18.9071 12.9627 20.1102 13.9466 21.1068C14.9305 22.1033 16.1394 22.6016 17.5734 22.6016Z" fill="#294A2B"/>
</svg>
