<svg width="60" height="60" viewBox="0 0 60 60" fill="none" xmlns="http://www.w3.org/2000/svg">
<path fill-rule="evenodd" clip-rule="evenodd" d="M36.2992 30.0031C36.2992 33.4824 33.4785 36.3031 29.9992 36.3031C26.5199 36.3031 23.6992 33.4824 23.6992 30.0031C23.6992 26.5238 26.5199 23.7031 29.9992 23.7031C33.4785 23.7031 36.2992 26.5238 36.2992 30.0031Z" stroke="white" stroke-width="1.92" stroke-linecap="round" stroke-linejoin="round"/>
<path d="M46.7984 31.7984C47.7925 31.7984 48.5984 30.9925 48.5984 29.9984C48.5984 29.0044 47.7925 28.1984 46.7984 28.1984V31.7984ZM42.5984 28.1984C41.6044 28.1984 40.7984 29.0044 40.7984 29.9984C40.7984 30.9925 41.6044 31.7984 42.5984 31.7984V28.1984ZM17.3984 31.7984C18.3925 31.7984 19.1984 30.9925 19.1984 29.9984C19.1984 29.0044 18.3925 28.1984 17.3984 28.1984V31.7984ZM13.1984 28.1984C12.2043 28.1984 11.3984 29.0044 11.3984 29.9984C11.3984 30.9925 12.2043 31.7984 13.1984 31.7984V28.1984ZM31.7984 13.1984C31.7984 12.2043 30.9925 11.3984 29.9984 11.3984C29.0044 11.3984 28.1984 12.2043 28.1984 13.1984H31.7984ZM28.1984 17.3984C28.1984 18.3925 29.0044 19.1984 29.9984 19.1984C30.9925 19.1984 31.7984 18.3925 31.7984 17.3984H28.1984ZM31.7984 42.5984C31.7984 41.6044 30.9925 40.7984 29.9984 40.7984C29.0044 40.7984 28.1984 41.6044 28.1984 42.5984H31.7984ZM28.1984 46.7984C28.1984 47.7925 29.0044 48.5984 29.9984 48.5984C30.9925 48.5984 31.7984 47.7925 31.7984 46.7984H28.1984ZM43.1512 19.3912C43.8541 18.6883 43.8541 17.5486 43.1512 16.8456C42.4482 16.1427 41.3087 16.1427 40.6057 16.8456L43.1512 19.3912ZM37.6345 19.8168C36.9316 20.5198 36.9316 21.6595 37.6345 22.3624C38.3375 23.0654 39.477 23.0654 40.18 22.3624L37.6345 19.8168ZM22.3624 40.18C23.0654 39.477 23.0654 38.3375 22.3624 37.6345C21.6595 36.9316 20.5198 36.9316 19.8168 37.6345L22.3624 40.18ZM16.8456 40.6057C16.1427 41.3087 16.1427 42.4482 16.8456 43.1512C17.5486 43.8541 18.6883 43.8541 19.3912 43.1512L16.8456 40.6057ZM19.3912 16.8456C18.6883 16.1427 17.5486 16.1427 16.8456 16.8456C16.1427 17.5486 16.1427 18.6883 16.8456 19.3912L19.3912 16.8456ZM19.8168 22.3624C20.5198 23.0654 21.6595 23.0654 22.3624 22.3624C23.0654 21.6595 23.0654 20.5198 22.3624 19.8168L19.8168 22.3624ZM40.1824 37.6369C39.4794 36.934 38.3399 36.934 37.6369 37.6369C36.934 38.3399 36.934 39.4794 37.6369 40.1824L40.1824 37.6369ZM40.6057 43.1512C41.3087 43.8541 42.4482 43.8541 43.1512 43.1512C43.8541 42.4482 43.8541 41.3087 43.1512 40.6057L40.6057 43.1512ZM46.7984 28.1984H42.5984V31.7984H46.7984V28.1984ZM17.3984 28.1984H13.1984V31.7984H17.3984V28.1984ZM28.1984 13.1984V17.3984H31.7984V13.1984H28.1984ZM28.1984 42.5984V46.7984H31.7984V42.5984H28.1984ZM40.6057 16.8456L37.6345 19.8168L40.18 22.3624L43.1512 19.3912L40.6057 16.8456ZM19.8168 37.6345L16.8456 40.6057L19.3912 43.1512L22.3624 40.18L19.8168 37.6345ZM16.8456 19.3912L19.8168 22.3624L22.3624 19.8168L19.3912 16.8456L16.8456 19.3912ZM37.6369 40.1824L40.6057 43.1512L43.1512 40.6057L40.1824 37.6369L37.6369 40.1824Z" fill="white"/>
</svg>
